<svg version="1.1" id="Layer_1" xmlns="http://www.w3.org/2000/svg" xmlns:xlink="http://www.w3.org/1999/xlink" x="0px" y="0px"
	 width="100%" viewBox="0 0 500 500" enable-background="new 0 0 500 500" xml:space="preserve">
<path fill="#000000" opacity="1.000000" stroke="none" 
	d="
M278.000000,501.000000 
	C185.333359,501.000000 93.166710,501.000000 1.000049,501.000000 
	C1.000033,334.333405 1.000033,167.666794 1.000016,1.000139 
	C167.666565,1.000093 334.333130,1.000093 500.999756,1.000046 
	C500.999847,167.666519 500.999847,334.333038 500.999939,500.999786 
	C426.833344,501.000000 352.666656,501.000000 278.000000,501.000000 
M404.935608,332.500000 
	C404.935608,251.769424 404.935608,171.038849 404.935608,90.437119 
	C386.134186,90.437119 368.221771,90.437119 350.000671,90.437119 
	C350.000671,92.304794 350.000305,93.787704 350.000732,95.270615 
	C350.017822,156.761871 350.035248,218.253128 350.050690,279.744385 
	C350.051086,281.243958 350.390106,282.874176 349.907990,284.202820 
	C349.502350,285.320770 348.247375,286.343109 347.117645,286.863678 
	C346.751007,287.032654 345.240570,285.626617 344.855499,284.692749 
	C343.109802,280.458588 341.486633,276.167816 339.985992,271.839661 
	C326.917450,234.147079 313.920807,196.429535 300.827545,158.745590 
	C293.258026,136.959686 285.506561,115.236954 277.960052,93.443176 
	C277.045258,90.801292 275.738922,89.980835 272.979431,90.010101 
	C260.649933,90.140877 248.317795,89.998131 235.986664,90.011719 
	C226.931854,90.021698 227.021469,90.092010 223.986176,98.986160 
	C215.913406,122.641365 207.839813,146.296890 199.612885,169.898743 
	C186.709396,206.916916 173.719910,243.905380 160.606415,280.849487 
	C159.793304,283.140228 157.584503,284.935547 156.025040,286.961334 
	C155.336212,284.649475 154.050064,282.338745 154.045700,280.025604 
	C153.929611,218.535202 153.947601,157.044540 153.928940,95.553940 
	C153.928406,93.800873 153.777100,92.047859 153.703293,90.450623 
	C134.846283,90.450623 116.607574,90.450623 98.385765,90.450623 
	C98.385765,189.740189 98.385765,288.627777 98.385765,387.682373 
	C100.240417,387.775604 101.719582,387.914948 103.198753,387.915070 
	C202.018280,387.922852 300.837830,387.894653 399.657227,388.000214 
	C403.956757,388.004791 405.009094,386.543579 404.965363,382.491943 
	C404.789185,366.163086 404.918884,349.830933 404.935608,332.500000 
M224.500000,69.954979 
	C273.914032,69.954979 323.328033,69.954979 372.598083,69.954979 
	C372.598083,55.547905 372.598083,41.963593 372.598083,28.387823 
	C291.322266,28.387823 210.412430,28.387823 129.331696,28.387823 
	C129.331696,42.301651 129.331696,55.874310 129.331696,69.953537 
	C160.917465,69.953537 192.208740,69.953537 224.500000,69.954979 
z"/>
<path fill="#4169E1" opacity="1.000000" stroke="none" 
	d="
M404.935608,333.000000 
	C404.918884,349.830933 404.789185,366.163086 404.965363,382.491943 
	C405.009094,386.543579 403.956757,388.004791 399.657227,388.000214 
	C300.837830,387.894653 202.018280,387.922852 103.198753,387.915070 
	C101.719582,387.914948 100.240417,387.775604 98.385765,387.682373 
	C98.385765,288.627777 98.385765,189.740189 98.385765,90.450623 
	C116.607574,90.450623 134.846283,90.450623 153.703293,90.450623 
	C153.777100,92.047859 153.928406,93.800873 153.928940,95.553940 
	C153.947601,157.044540 153.929611,218.535202 154.045700,280.025604 
	C154.050064,282.338745 155.336212,284.649475 156.025055,286.961334 
	C157.584503,284.935547 159.793304,283.140228 160.606415,280.849487 
	C173.719910,243.905380 186.709396,206.916916 199.612885,169.898743 
	C207.839813,146.296890 215.913406,122.641365 223.986176,98.986160 
	C227.021469,90.092010 226.931854,90.021698 235.986664,90.011719 
	C248.317795,89.998131 260.649933,90.140877 272.979431,90.010101 
	C275.738922,89.980835 277.045258,90.801292 277.960052,93.443176 
	C285.506561,115.236954 293.258026,136.959686 300.827545,158.745590 
	C313.920807,196.429535 326.917450,234.147079 339.985992,271.839661 
	C341.486633,276.167816 343.109802,280.458588 344.855499,284.692749 
	C345.240570,285.626617 346.751007,287.032654 347.117645,286.863678 
	C348.247375,286.343109 349.502350,285.320770 349.907990,284.202820 
	C350.390106,282.874176 350.051086,281.243958 350.050690,279.744385 
	C350.035248,218.253128 350.017822,156.761871 350.000732,95.270615 
	C350.000305,93.787704 350.000671,92.304794 350.000671,90.437119 
	C368.221771,90.437119 386.134186,90.437119 404.935608,90.437119 
	C404.935608,171.038849 404.935608,251.769424 404.935608,333.000000 
M233.075531,242.500031 
	C233.075531,234.001984 233.075531,225.503937 233.075531,217.005875 
	C232.735336,216.968338 232.395157,216.930786 232.054962,216.893234 
	C216.000778,263.770630 199.946609,310.648041 183.722198,358.022522 
	C198.677322,358.022522 212.830505,357.823395 226.972580,358.132111 
	C231.827820,358.238098 233.190659,356.750763 233.167175,351.950623 
	C232.990387,315.801147 233.072678,279.650391 233.075531,242.500031 
M268.944153,296.500000 
	C268.944153,316.903595 268.944153,337.307190 268.944153,357.718201 
	C285.043274,357.718201 300.422577,357.718201 316.496033,357.718201 
	C300.795502,312.108307 285.267548,266.999725 269.739594,221.891174 
	C269.473785,221.962616 269.208008,222.034042 268.942200,222.105469 
	C268.942200,246.570312 268.942200,271.035156 268.944153,296.500000 
z"/>
<path fill="#4269DF" opacity="1.000000" stroke="none" 
	d="
M224.000000,69.954254 
	C192.208740,69.953537 160.917465,69.953537 129.331696,69.953537 
	C129.331696,55.874310 129.331696,42.301651 129.331696,28.387823 
	C210.412430,28.387823 291.322266,28.387823 372.598083,28.387823 
	C372.598083,41.963593 372.598083,55.547905 372.598083,69.954979 
	C323.328033,69.954979 273.914032,69.954979 224.000000,69.954254 
z"/>
<path fill="#000000" opacity="1.000000" stroke="none" 
	d="
M233.074768,243.000031 
	C233.072678,279.650391 232.990387,315.801147 233.167175,351.950623 
	C233.190659,356.750763 231.827820,358.238098 226.972580,358.132111 
	C212.830505,357.823395 198.677322,358.022522 183.722198,358.022522 
	C199.946609,310.648041 216.000778,263.770630 232.054962,216.893234 
	C232.395157,216.930786 232.735336,216.968338 233.075531,217.005875 
	C233.075531,225.503937 233.075531,234.001984 233.074768,243.000031 
z"/>
<path fill="#000000" opacity="1.000000" stroke="none" 
	d="
M268.943176,296.000000 
	C268.942200,271.035156 268.942200,246.570312 268.942200,222.105469 
	C269.208008,222.034042 269.473785,221.962616 269.739594,221.891174 
	C285.267548,266.999725 300.795502,312.108307 316.496033,357.718201 
	C300.422577,357.718201 285.043274,357.718201 268.944153,357.718201 
	C268.944153,337.307190 268.944153,316.903595 268.943176,296.000000 
z"/>
</svg>