<svg version="1.1" id="Layer_1" xmlns="http://www.w3.org/2000/svg" xmlns:xlink="http://www.w3.org/1999/xlink" x="0px" y="0px"
	 width="100%" viewBox="0 0 500 500" enable-background="new 0 0 500 500" xml:space="preserve">
<path fill="#000000" opacity="1.000000" stroke="none" 
	d="
M283.000000,501.000000 
	C188.666687,501.000000 94.833382,501.000000 1.000050,501.000000 
	C1.000034,334.333405 1.000034,167.666794 1.000017,1.000140 
	C167.666565,1.000093 334.333130,1.000093 500.999756,1.000047 
	C500.999847,167.666519 500.999847,334.333038 500.999939,500.999786 
	C428.500000,501.000000 356.000000,501.000000 283.000000,501.000000 
M404.921417,332.500031 
	C404.921417,251.901810 404.921417,171.303604 404.921417,90.380852 
	C386.354034,90.380852 368.467010,90.380852 350.325562,90.380852 
	C350.207977,91.947739 350.025421,93.244865 350.025635,94.541962 
	C350.033417,141.282425 350.061279,188.022888 350.078979,234.763351 
	C350.085052,250.759262 350.131744,266.755829 349.963348,282.750000 
	C349.948425,284.166412 348.473114,285.567444 347.676117,286.975647 
	C346.535614,285.897583 344.919098,285.026215 344.344238,283.702515 
	C342.646637,279.793549 341.321228,275.719452 339.920410,271.685577 
	C326.812897,233.940399 313.744446,196.181625 300.613525,158.444565 
	C293.108002,136.874496 285.437805,115.361366 278.032166,93.757324 
	C277.022736,90.812561 275.554321,90.018394 272.677032,90.041168 
	C261.013916,90.133499 249.349213,90.003143 237.685135,90.010178 
	C226.479019,90.016945 226.657684,90.106819 223.108307,100.690826 
	C215.331512,123.880821 207.451874,147.037430 199.438004,170.146545 
	C186.685623,206.919785 173.847046,243.663605 160.817902,280.339233 
	C159.992157,282.663605 160.805054,287.514435 156.464676,286.807373 
	C151.883224,286.061066 153.977646,281.591095 153.972015,278.853271 
	C153.846802,218.033066 153.882233,157.212524 153.887131,96.392036 
	C153.887283,94.452759 153.887146,92.513481 153.887146,90.442719 
	C134.954376,90.442719 116.735939,90.442719 98.384895,90.442719 
	C98.384895,189.688461 98.384895,288.560425 98.384895,387.634674 
	C100.230782,387.745178 101.702118,387.910217 103.173462,387.910370 
	C201.988052,387.921570 300.802673,387.896423 399.617126,387.997192 
	C403.872284,388.001526 405.025391,386.529541 404.983856,382.489502 
	C404.815918,366.161224 404.918610,349.830109 404.921417,332.500031 
M372.929474,37.563625 
	C372.929474,34.492722 372.929474,31.421822 372.929474,28.536018 
	C291.117615,28.536018 210.258041,28.536018 129.371368,28.536018 
	C129.371368,42.446552 129.371368,55.869316 129.371368,69.477058 
	C210.692856,69.477058 291.683746,69.477058 372.929871,69.477058 
	C372.929871,58.851330 372.929871,48.698181 372.929474,37.563625 
z"/>
<path fill="#3F51B4" opacity="1.000000" stroke="none" 
	d="
M404.921417,333.000061 
	C404.918610,349.830109 404.815918,366.161224 404.983856,382.489502 
	C405.025391,386.529541 403.872284,388.001526 399.617126,387.997192 
	C300.802673,387.896423 201.988052,387.921570 103.173462,387.910370 
	C101.702118,387.910217 100.230782,387.745178 98.384895,387.634674 
	C98.384895,288.560425 98.384895,189.688461 98.384895,90.442719 
	C116.735939,90.442719 134.954376,90.442719 153.887146,90.442719 
	C153.887146,92.513481 153.887283,94.452759 153.887131,96.392036 
	C153.882233,157.212524 153.846802,218.033066 153.972015,278.853271 
	C153.977646,281.591095 151.883224,286.061066 156.464676,286.807373 
	C160.805054,287.514435 159.992157,282.663605 160.817902,280.339233 
	C173.847046,243.663605 186.685623,206.919785 199.438004,170.146545 
	C207.451874,147.037430 215.331512,123.880821 223.108307,100.690826 
	C226.657684,90.106819 226.479019,90.016945 237.685135,90.010178 
	C249.349213,90.003143 261.013916,90.133499 272.677032,90.041168 
	C275.554321,90.018394 277.022736,90.812561 278.032166,93.757324 
	C285.437805,115.361366 293.108002,136.874496 300.613525,158.444565 
	C313.744446,196.181625 326.812897,233.940399 339.920410,271.685577 
	C341.321228,275.719452 342.646637,279.793549 344.344238,283.702515 
	C344.919098,285.026215 346.535614,285.897583 347.676117,286.975647 
	C348.473114,285.567444 349.948425,284.166412 349.963348,282.750000 
	C350.131744,266.755829 350.085052,250.759262 350.078979,234.763351 
	C350.061279,188.022888 350.033417,141.282425 350.025635,94.541962 
	C350.025421,93.244865 350.207977,91.947739 350.325562,90.380852 
	C368.467010,90.380852 386.354034,90.380852 404.921417,90.380852 
	C404.921417,171.303604 404.921417,251.901810 404.921417,333.000061 
M233.064240,282.500000 
	C233.064240,260.776733 233.064240,239.053467 233.064240,217.330200 
	C232.701202,217.264420 232.338150,217.198639 231.975113,217.132874 
	C215.945053,263.914124 199.915009,310.695404 183.811356,357.691467 
	C200.507736,357.691467 216.565613,357.691467 233.064529,357.691467 
	C233.064529,332.720947 233.064529,308.110474 233.064240,282.500000 
M284.088470,263.468689 
	C279.353210,249.758133 274.617981,236.047592 269.882751,222.337051 
	C269.712616,222.429535 269.542480,222.522003 269.372345,222.614471 
	C269.372345,267.672546 269.372345,312.730621 269.372345,357.795715 
	C285.124634,357.795715 300.407471,357.795715 316.596954,357.795715 
	C305.684906,326.273376 294.951019,295.265747 284.088470,263.468689 
z"/>
<path fill="#3F51B2" opacity="1.000000" stroke="none" 
	d="
M372.929688,38.054329 
	C372.929871,48.698181 372.929871,58.851330 372.929871,69.477058 
	C291.683746,69.477058 210.692856,69.477058 129.371368,69.477058 
	C129.371368,55.869316 129.371368,42.446552 129.371368,28.536018 
	C210.258041,28.536018 291.117615,28.536018 372.929474,28.536018 
	C372.929474,31.421822 372.929474,34.492722 372.929688,38.054329 
z"/>
<path fill="#000000" opacity="1.000000" stroke="none" 
	d="
M233.064392,283.000000 
	C233.064529,308.110474 233.064529,332.720947 233.064529,357.691467 
	C216.565613,357.691467 200.507736,357.691467 183.811356,357.691467 
	C199.915009,310.695404 215.945053,263.914124 231.975113,217.132874 
	C232.338150,217.198639 232.701202,217.264420 233.064240,217.330200 
	C233.064240,239.053467 233.064240,260.776733 233.064392,283.000000 
z"/>
<path fill="#000000" opacity="1.000000" stroke="none" 
	d="
M284.152802,263.863403 
	C294.951019,295.265747 305.684906,326.273376 316.596954,357.795715 
	C300.407471,357.795715 285.124634,357.795715 269.372345,357.795715 
	C269.372345,312.730621 269.372345,267.672546 269.372345,222.614471 
	C269.542480,222.522003 269.712616,222.429535 269.882751,222.337051 
	C274.617981,236.047592 279.353210,249.758133 284.152802,263.863403 
z"/>
</svg>